<svg width="1907" height="788" xmlns="http://www.w3.org/2000/svg" xml:space="preserve" enable-background="new 0 0 1200 1200" version="1.0">

 <g>
  <title>Layer 1</title>
  <g id="svg_25">
   <g stroke="null" id="svg_1">
    <g stroke="null" id="svg_2">
     <g stroke="null" id="svg_3">
      <path stroke="null" id="svg_4" fill="rgb(6, 214, 160)" d="m708.55115,506.95743c-6.92049,-2.11702 -8.89101,-3.87485 -10.21571,-10.87855c-1.31844,-7.01894 12.17996,-1.7626 12.17996,-1.7626c-0.97318,-8.07078 -15.80792,-5.61077 -14.79717,-8.76915c0.98481,-3.15933 0.30054,-2.09606 -2.975,-5.26397c-3.30058,-3.16124 0.31396,-1.75879 1.96425,-5.96234c1.64403,-4.21213 -6.91513,-10.16685 -10.53683,-15.43748c-3.61991,-5.27064 2.62973,-2.45715 2.96248,-8.07745c0.339,-5.60506 -1.31129,1.75688 -7.89367,4.91907c-6.60206,3.14885 -13.51809,11.23012 -13.51809,11.23012c-0.97855,-5.26397 -5.61099,-8.07174 -13.83741,-16.49695c-8.22015,-8.41187 -37.84581,-58.99933 -37.84581,-58.99933c-15.7945,-20.00975 -23.30445,-39.21824 -39.84852,-67.23113c-16.51813,-28.0167 -2.24511,-15.21645 -21.01462,-48.02646c-18.80797,-32.81668 -47.35757,-53.62008 -74.39911,-72.83524c-27.06748,-19.20277 -53.36661,-34.42493 -78.15498,-36.81635c-24.80179,-2.39904 -30.0541,1.59491 -50.34062,-1.60444c-20.29189,-3.19935 -28.54961,-16.01295 -47.35131,-16.80755c-18.77576,-0.80317 -39.07481,-8.8025 -56.33982,-13.60629c-17.29184,-4.79807 -72.90267,-36.01222 -72.90267,-36.01222s9.781,16.00533 -3.0063,0.79269c-12.756,-15.20501 -25.53794,-24.00942 -25.53794,-24.00942c-18.78113,-21.60657 -49.59106,-53.61913 -49.59106,-53.61913c-30.80367,-22.40784 -43.58471,-3.20983 -43.58471,-3.20983s8.26577,2.40571 -2.25048,0c-10.53056,-2.39904 -14.27838,13.61486 -14.27838,13.61486c-15.02795,7.99933 -0.74151,24.80306 -0.74151,24.80306c-13.52435,0 -1.50986,12.01614 -1.50986,12.01614c-0.2755,1.0023 -0.54473,2.0065 -0.77371,2.99927c-9.21212,38.82952 15.7945,58.62776 15.7945,58.62776c0.75493,14.40851 12.78104,22.40784 12.78104,22.40784c-16.53065,-1.60063 3.76124,25.611 3.76124,25.611c-8.2774,4.80665 -12.02611,10.40503 -12.02611,10.40503c-11.27118,30.41765 66.8829,55.22547 66.8829,55.22547c-9.01891,8.8006 13.51182,18.40436 13.51182,18.40436c-28.54514,20.81769 18.03962,37.61952 18.03962,37.61952l-0.64581,1.12425c-28.32063,12.98414 -34.90301,54.04691 -8.88564,116.49713c26.02989,62.45497 109.37278,76.84538 123.53041,78.60417c14.15673,1.75116 22.07635,-1.40436 22.07635,-1.40436c0.99733,10.87284 26.02363,21.39601 28.00041,27.0106c1.97588,5.61554 9.22375,30.87973 11.19426,37.88724c1.97051,7.0218 1.32471,17.54974 -2.62795,22.81276c-3.95444,5.26206 -4.94551,7.37718 -8.89816,12.98509c-3.95981,5.61077 -3.62707,4.21403 -16.14692,9.47419c-12.5127,5.26397 -35.91376,10.87474 -12.18622,7.36575c23.7329,-3.49947 25.37157,-7.36575 32.94502,-8.77201c7.57435,-1.39674 7.24161,-4.21213 9.8776,-3.50995c2.64226,0.70885 2.30862,2.11226 3.62707,5.26683c1.31666,3.15933 -5.93032,4.22166 9.22464,9.12834c15.1487,4.90954 16.13351,12.62591 18.78203,5.95472c2.62973,-6.66357 -11.20141,-12.97652 -11.20141,-12.97652s0,-0.00762 2.22007,-2.7506c9.53771,0.16387 28.08985,-1.79118 35.72145,-2.66771c0.08319,0.05526 0.17889,0.11338 0.26297,0.1572c4.61187,2.10178 2.64136,3.15362 7.58598,2.10178c4.93925,-1.0566 10.20408,2.80777 16.78647,5.27445c6.58417,2.44286 7.58151,14.01979 9.89013,10.17256c2.29699,-3.87009 1.96425,-4.2207 1.63777,-10.87855c-0.31396,-6.67024 -1.29877,-5.62506 -6.2559,-8.78249c-4.93299,-3.15171 -2.29699,-2.8011 0.339,-5.26016c2.636,-2.45715 19.10224,-2.11321 29.98433,-3.15171c10.86152,-1.06232 31.93517,1.39674 46.43717,0.34394c14.48948,-1.05279 1.97677,-3.86342 -6.58954,-5.96234c-8.56631,-2.10464 -4.61187,-4.5656 -25.69089,-3.85389c-21.07902,0.70218 -40.51937,3.14504 -52.05532,2.09892c-11.50822,-1.0566 -3.95265,-0.69456 -15.1487,-8.42902c-11.19426,-7.70969 -55.99992,-69.10997 -58.63591,-71.92155c-2.62973,-2.81158 -3.6217,-5.96234 -4.28003,-9.47229c-0.65922,-3.51185 11.19426,-3.87009 15.48055,-5.26683c4.28539,-1.40436 5.2711,-4.20832 10.54219,-10.88236c5.26483,-6.6569 15.46802,-9.47038 50.39071,-17.54212c34.92179,-8.07174 54.36394,-3.15552 54.36394,-3.15552s-28.33315,-15.43748 1.98214,-0.34394c30.29114,15.08306 90.57198,30.52054 100.14278,30.16612c9.55649,-0.34013 3.94639,-0.68789 6.56986,2.80777c2.65478,3.51566 9.8776,3.85961 14.16389,8.07555c4.29255,4.21022 11.88568,15.0964 11.88568,15.0964c-4.31133,5.60696 -20.09958,13.68251 -20.09958,13.68251c-15.82044,4.55417 -3.29522,16.83708 -3.29522,16.83708c35.56939,34.03621 63.22453,2.45525 63.22453,2.45525c4.29255,3.8577 4.97056,8.06793 4.97056,8.06793c-1.33097,16.14729 6.24249,18.60254 6.24249,18.60254c8.5529,-3.15838 11.86064,-21.05207 11.86064,-21.05207s5.93658,-1.76164 8.24609,-0.70218c2.28984,1.03946 3.93387,0 4.9312,-0.70885c0.97229,-0.70218 4.29255,0 4.29255,-2.45906c0,-2.45049 -1.01075,-3.85389 -1.98214,-6.31009c-0.99912,-2.45906 6.57612,-1.04517 5.25768,-3.51185c-1.32471,-2.45715 -1.62525,-2.09892 -1.32471,-3.15933c0.33274,-1.04517 4.29255,1.7483 7.59313,0.70218c3.28896,-1.05279 1.30503,-4.20832 -3.95265,-8.76248c-5.2711,-4.57227 -0.31932,-1.75879 5.25768,-2.81825c5.59221,-1.05279 9.89013,0.70218 10.56276,-3.15171c0.63954,-3.86247 -2.63689,-2.10559 -5.94284,-4.21022c-3.2818,-2.1094 -3.6217,-6.67119 -1.98393,-5.96234c1.64403,0.69837 16.81867,1.7483 18.7695,0.70218c1.99108,-1.05756 5.26662,-2.81634 -1.63061,-4.91336zm-333.03882,78.93573c0.75493,2.5753 2.47589,5.78894 4.56268,8.73962c-7.21656,-0.19436 -15.35443,-2.78681 -20.45826,-4.67421c-0.14669,-1.15855 -0.42219,-2.3857 -0.90878,-3.70717c-3.06981,-8.48714 -8.57794,-22.94233 -10.81679,-28.89514c6.50457,7.1933 26.19537,23.71025 27.62115,28.53691z"/>
      <path stroke="null" id="svg_5" fill="rgb(6, 214, 160)" d="m370.49168,46.02138c160.23846,0 290.59366,138.85733 290.59366,309.53189c0,15.22978 -1.07426,30.18994 -3.08412,44.83473c5.18254,6.51303 10.03145,13.3176 14.73277,20.23746c3.97322,-21.03778 6.07701,-42.78917 6.07701,-65.07124c0,-181.37686 -138.03867,-328.41073 -308.31932,-328.41073c-61.37477,0 -118.52676,19.15799 -166.55787,52.10044c6.09043,3.88152 12.61557,7.08087 18.59687,10.03441c43.36646,-27.45172 93.95575,-43.25697 147.961,-43.25697z"/>
     </g>
    </g>
   </g>
   <text transform="matrix(2.41537 0 0 2.57091 -750.146 -1126.2)" stroke="#000" font-style="normal" font-weight="normal" xml:space="preserve" text-anchor="start" font-family="'Roboto ExtraBold'" font-size="167" id="svg_24" y="697.11563" x="496.87899" stroke-width="0" fill="#073b4c">I.News</text>
  </g>
 </g>
</svg>