<svg width="1153" height="1027" xmlns="http://www.w3.org/2000/svg" xml:space="preserve" enable-background="new 0 0 1200 1200" version="1.0">

 <g>
  <title>Layer 1</title>
  <g stroke="null" id="svg_1">
   <g stroke="null" id="svg_2">
    <g stroke="null" id="svg_3">
     <path stroke="null" id="svg_4" fill="rgb(6, 214, 160)" d="m1071.25303,748.60557c-9.96938,-3.07363 -12.80802,-5.62576 -14.71634,-15.79419c-1.8993,-10.19056 17.54596,-2.55905 17.54596,-2.55905c-1.40192,-11.71769 -22.77225,-8.14608 -21.31621,-12.73163c1.41868,-4.58693 0.43295,-3.0432 -4.28566,-7.64257c-4.75469,-4.58969 0.45228,-2.55352 2.82962,-8.65651c2.36832,-6.11544 -9.96165,-14.76089 -15.17893,-22.41314c-5.2147,-7.65226 3.78829,-3.56746 4.26762,-11.72737c0.48835,-8.13778 -1.88899,2.55075 -11.37131,7.14183c-9.51067,4.57171 -19.47361,16.30462 -19.47361,16.30462c-1.40966,-7.64257 -8.08297,-11.71907 -19.93361,-23.95134c-11.84162,-12.2129 -54.51915,-85.65906 -54.51915,-85.65906c-22.75293,-29.05146 -33.57145,-56.93959 -57.40417,-97.61052c-23.79535,-40.67647 -3.23422,-22.09222 -30.27281,-69.72793c-27.094,-47.64539 -68.22141,-77.84911 -107.17636,-105.74692c-38.99232,-27.87983 -76.87778,-49.98035 -112.58691,-53.45236c-35.72846,-3.48308 -43.29473,2.3156 -72.51867,-2.32943c-29.23167,-4.64502 -41.12742,-23.24864 -68.21239,-24.40228c-27.04761,-1.1661 -56.28959,-12.78004 -81.16087,-19.75449c-24.90993,-6.96615 -105.02064,-52.28488 -105.02064,-52.28488s14.09011,23.23757 -4.33076,1.15088c-18.37578,-22.07562 -36.78892,-34.85843 -36.78892,-34.85843c-27.05534,-31.36982 -71.43888,-77.84773 -71.43888,-77.84773c-44.37452,-32.53315 -62.78638,-4.66024 -62.78638,-4.66024s11.90734,3.49276 -3.24195,0c-15.16991,-3.48308 -20.56886,19.76694 -20.56886,19.76694c-21.64865,11.61394 -1.06819,36.0107 -1.06819,36.0107c-19.48263,0 -2.17504,17.44581 -2.17504,17.44581c-0.39687,1.4552 -0.78472,2.91317 -1.11458,4.35454c-13.27061,56.37521 22.75293,85.11958 22.75293,85.11958c1.08752,20.91921 18.41186,32.53315 18.41186,32.53315c-23.81339,-2.3239 5.41828,37.18371 5.41828,37.18371c-11.92409,6.9786 -17.32433,15.1067 -17.32433,15.1067c-16.23681,44.16231 96.34881,80.17992 96.34881,80.17992c-12.99228,12.77727 19.46459,26.72065 19.46459,26.72065c-41.12097,30.22447 25.98715,54.61846 25.98715,54.61846l-0.93032,1.63226c-40.79755,18.85122 -50.27987,78.46882 -12.80029,169.13809c37.49762,90.67618 157.55802,111.56911 177.95293,114.12263c20.39362,2.54245 31.8023,-2.03894 31.8023,-2.03894c1.43671,15.78589 37.4886,31.06412 40.33626,39.21573c2.84637,8.153 13.28736,44.8332 16.126,55.00716c2.83864,10.19471 1.90832,25.47985 -3.78571,33.12104c-5.69661,7.63981 -7.1243,10.71067 -12.81833,18.8526c-5.70434,8.14608 -5.225,6.11821 -23.26061,13.75525c-18.0253,7.64257 -51.73591,15.78866 -17.55498,10.69407c34.18866,-5.08075 36.54926,-10.69407 47.45927,-12.73578c10.9113,-2.02788 10.43197,-6.11544 14.22928,-5.09597c3.80633,1.02915 3.32571,3.06671 5.225,7.64672c1.89672,4.58693 -8.54298,6.12927 13.28865,13.25312c21.82261,7.128 23.24128,18.33111 27.05663,8.64544c3.78829,-9.6746 -16.13631,-18.84015 -16.13631,-18.84015s0,-0.01107 3.19814,-3.9935c13.73963,0.23792 40.46511,-2.60055 51.45888,-3.87316c0.11983,0.08023 0.25771,0.16461 0.37883,0.22824c6.64368,3.0515 3.80504,4.57863 10.92805,3.0515c7.11528,-1.53405 14.69959,4.0765 24.18191,7.65779c9.4849,3.54671 10.92161,20.35483 14.24732,14.76919c3.30895,-5.61885 2.82962,-6.12789 2.35931,-15.79419c-0.45228,-9.68428 -1.87095,-8.16683 -9.012,-12.75099c-7.10626,-4.57586 -3.30895,-4.06682 0.48835,-7.63704c3.79731,-3.56746 27.51792,-3.0681 43.19422,-4.57586c15.64666,-1.54235 46.00452,2.02788 66.89551,0.49936c20.87296,-1.52851 2.84766,-5.60916 -9.49263,-8.65651c-12.34029,-3.05565 -6.64368,-6.62863 -37.00926,-5.59533c-30.36558,1.01947 -58.37057,4.56618 -74.98879,3.04735c-16.57827,-1.53405 -5.69403,-1.0084 -21.82261,-12.2378c-16.126,-11.19343 -80.67122,-100.33833 -84.46853,-104.42037c-3.78829,-4.08203 -5.21727,-8.65651 -6.16563,-13.75248c-0.94965,-5.09874 16.126,-5.61885 22.30065,-7.64672c6.17336,-2.03894 7.59333,-6.10991 15.18666,-15.79972c7.58431,-9.66491 22.28261,-13.74971 72.59083,-25.46879c50.30693,-11.71907 78.3145,-4.58139 78.3145,-4.58139s-40.81559,-22.41314 2.85539,-0.49936c43.63619,21.89856 130.47434,44.31171 144.26165,43.79713c13.76669,-0.49383 5.68501,-0.99872 9.46428,4.0765c3.82437,5.10427 14.22928,5.60363 20.40393,11.72461c6.18367,6.11267 17.12203,21.91793 17.12203,21.91793c-6.21073,8.14055 -28.95464,19.86516 -28.95464,19.86516c-22.79029,6.61204 -4.74696,24.44517 -4.74696,24.44517c51.23983,49.41598 91.07871,3.56469 91.07871,3.56469c6.18367,5.60086 7.16038,11.71354 7.16038,11.71354c-1.91734,23.44368 8.99268,27.00837 8.99268,27.00837c12.32096,-4.58554 17.08596,-30.56476 17.08596,-30.56476s8.552,-2.55767 11.87899,-1.01947c3.29865,1.50915 5.66697,0 7.10369,-1.02915c1.40064,-1.01947 6.18367,0 6.18367,-3.57022c0,-3.55777 -1.45604,-5.59533 -2.85539,-9.1614c-1.43929,-3.57022 9.4733,-1.51745 7.574,-5.09874c-1.90832,-3.56746 -2.34127,-3.04735 -1.90832,-4.58693c0.47933,-1.51745 6.18367,2.5383 10.93836,1.01947c4.73794,-1.52851 1.87997,-6.10991 -5.69403,-12.72194c-7.59333,-6.63832 -0.46001,-2.55352 7.574,-4.09172c8.05591,-1.52851 14.24732,1.01947 15.21629,-4.57586c0.9213,-5.60778 -3.7986,-3.05703 -8.56102,-6.11267c-4.72763,-3.06256 -5.21727,-9.68566 -2.85797,-8.65651c2.36832,1.01394 24.2283,2.5383 27.03859,1.01947c2.86828,-1.53543 7.58689,-4.08895 -2.349,-7.13353zm-479.76229,114.60401c1.08752,3.73898 3.56666,8.40475 6.57281,12.68875c-10.39589,-0.28219 -22.11897,-4.04607 -29.47134,-6.78633c-0.21132,-1.68206 -0.60819,-3.46371 -1.30915,-5.38231c-4.42225,-12.32218 -12.35704,-33.30917 -15.58224,-41.95184c9.37022,10.4437 37.736,34.42408 39.78992,41.43173z"/>
     <path stroke="null" id="svg_5" fill="rgb(6, 214, 160)" d="m584.2582,79.38871c230.83306,0 418.61751,201.60207 418.61751,449.39848c0,22.11159 -1.54753,43.83171 -4.44286,65.09397c7.46576,9.45604 14.4509,19.33536 21.22344,29.38206c5.72367,-30.54401 8.7543,-62.12409 8.7543,-94.47465c0,-263.33469 -198.85295,-476.808 -444.15238,-476.808c-88.41402,0 -170.74488,27.81481 -239.93655,75.64279c8.77363,5.63545 18.17348,10.28047 26.7899,14.56861c62.47197,-39.85619 135.34886,-62.80327 213.14665,-62.80327z"/>
     <path stroke="null" id="svg_6" fill="rgb(6, 214, 160)" d="m857.83063,868.56699c-73.41034,68.24368 -169.05819,109.62146 -273.57372,109.62146c-230.82276,0 -418.61493,-201.60761 -418.61493,-449.40125c0,-45.76967 6.44911,-89.94167 18.34743,-131.57813c-8.36774,-2.31836 -16.4971,-5.17758 -24.31076,-8.70077c-12.6985,44.35182 -19.57411,91.45358 -19.57411,140.2789c0,263.3264 198.86326,476.81077 444.15238,476.81077c117.11224,0 223.57862,-48.70912 302.89688,-128.24583c-9.87661,-2.25473 -19.67333,-5.1098 -29.32316,-8.78515z"/>
    </g>
   </g>
   <path stroke="null" id="svg_21" fill="rgb(6, 214, 160)" d="m256.51581,48.55699c12.48589,-9.39518 25.34288,-18.2495 38.54004,-26.54912c-1.87997,-2.69876 -3.39271,-5.69769 -4.43256,-8.91795c-13.51929,8.48913 -26.70615,17.53573 -39.48969,27.14808c2.24076,2.49819 4.02667,5.30623 5.3822,8.31899z"/>
   <path stroke="null" id="svg_22" fill="rgb(6, 214, 160)" d="m1128.61984,535.91658c0,145.7608 -49.08926,279.42629 -130.42666,383.00701c0.05541,0.08438 0.11983,0.15908 0.17524,0.23792c1.90574,2.71951 3.66717,5.53032 5.41828,8.34389c83.68639,-105.62796 134.27036,-242.37537 134.27036,-391.58882c0,-194.63592 -86.06503,-368.04278 -219.43212,-478.83588c-0.26801,0.46478 -0.54376,0.91849 -0.80147,1.38327c-1.35554,2.46361 -2.68144,4.94658 -4.02667,7.41572c130.60319,108.97824 214.82303,279.1192 214.82303,470.03689z"/>
   <path stroke="null" id="svg_23" fill="rgb(6, 214, 160)" d="m137.67178,902.28837c-73.76082,-101.07838 -117.79388,-228.30889 -117.79388,-366.37179c0,-106.9642 26.45746,-207.39521 72.6836,-294.21069c-1.33621,-4.20514 -2.68144,-8.4089 -4.05373,-12.59883c-49.56216,90.01083 -78.06581,194.88353 -78.06581,306.80952c0,140.63994 44.9157,270.22615 120.15318,373.10002c2.36832,-2.23675 4.71732,-4.4818 7.07663,-6.72823z"/>
  </g>
 </g>
</svg>